<?xml version="1.0" standalone="no"?><!DOCTYPE svg PUBLIC "-//W3C//DTD SVG 1.1//EN" "http://www.w3.org/Graphics/SVG/1.1/DTD/svg11.dtd"><svg t="1537941740689" class="icon" style="" viewBox="0 0 1024 1024" version="1.1" xmlns="http://www.w3.org/2000/svg" p-id="53609" xmlns:xlink="http://www.w3.org/1999/xlink" width="28" height="28"><defs><style type="text/css"></style></defs><path d="M280.037 735.158c186.517 177.067 404.065 248.878 518.064 201.754 55.786-23.06 88.544-43.858 105.447-75.087 23.047-42.581 6.588-91.103-48.034-145.351-75.769-75.251-127.718-83.618-185.054-42.421-4.763 3.422-9.514 7.075-15.772 12.058 0.216-0.173-11.725 9.4-15.127 12.072a418.647 418.647 0 0 1-7.904 6.074c-18.41 13.778-23.458 17.207-29.467 19.704-17.225 7.156-44.311-8.9-156.461-102.736-135.439-113.322-142.281-126.44-114.644-164.689 4.747-6.569 10.562-13.401 25.103-30.129 61.064-71.761 67.259-133.065-13.987-213.447-55.887-55.292-105.807-73.625-152.383-56.667-33.993 12.377-56.03 35.519-93.822 87.926-71.158 98.679-4.796 311.669 184.041 490.939zM207.63 205.213c24.566-8.945 54.96 2.218 97.956 44.756 59.212 58.583 56.069 89.68 10.953 142.7-14.112 16.181-21.491 24.851-27.652 33.377-50.04 69.253-30.874 105.997 123.434 235.107 132.515 110.876 164.387 129.769 209.842 110.885 11.764-4.888 18.04-9.151 40.687-26.099a480.766 480.766 0 0 0 8.871-6.816c3.64-2.859 15.794-12.601 15.399-12.287 5.643-4.494 9.784-7.678 13.718-10.504 35.109-25.226 59.153-21.354 117.989 37.081 40.068 39.794 48.773 65.456 38.935 83.631-9.254 17.098-34.533 33.147-79.55 51.756-91.991 38.026-289.252-27.087-462.332-191.398C143.668 533.914 85.622 347.614 138.223 274.67c31.473-43.645 48.966-62.014 69.407-69.457z m356.331 23.147c-14.376 0-26.03 11.654-26.03 26.03s11.654 26.03 26.03 26.03c100.633 0 182.213 81.58 182.213 182.213 0 14.376 11.654 26.03 26.03 26.03 14.376 0 26.03-11.654 26.03-26.03 0.001-129.385-104.887-234.273-234.273-234.273z" fill="#dfb330" p-id="53610"></path><path d="M563.961 72.177c-14.376 0-26.03 11.654-26.03 26.03s11.654 26.03 26.03 26.03c186.891 0 338.396 151.505 338.396 338.396 0 14.376 11.654 26.03 26.03 26.03 14.376 0 26.03-11.654 26.03-26.03 0.001-215.643-174.813-390.456-390.456-390.456z" fill="#dfb330" p-id="53611"></path></svg>