<?xml version="1.0" standalone="no"?><!DOCTYPE svg PUBLIC "-//W3C//DTD SVG 1.1//EN" "http://www.w3.org/Graphics/SVG/1.1/DTD/svg11.dtd"><svg t="1537941821564" class="icon" style="" viewBox="0 0 1024 1024" version="1.1" xmlns="http://www.w3.org/2000/svg" p-id="55252" xmlns:xlink="http://www.w3.org/1999/xlink" width="28" height="28"><defs><style type="text/css"></style></defs><path d="M848.490707 260.363889h-56.148811V63.848167H230.875275v196.515722h-56.149835c-61.930491 0-112.291482 50.360991-112.291482 112.293529v364.9509h168.441317v224.590127h561.466621V737.608318h168.441317V372.657418c0-61.932538-50.367131-112.293529-112.292506-112.293529z m-561.467645-140.365888h449.170023v140.365888h-449.170023V119.998001z m449.171046 786.051633h-449.170022V653.390217h449.170022v252.659417z m168.440294-224.585011H792.341896v-84.223217H230.875275v84.223217H118.581746V372.657418c0-30.953989 25.190729-56.149834 56.143694-56.149834h673.765267c30.948873 0 56.143695 25.195845 56.143695 56.149834v308.807205zM511.608074 400.726707H258.94968c-15.518438 0-28.074406 12.56006-28.074405 28.074406 0 15.518438 12.555967 28.074406 28.074405 28.074405h252.659417c15.513322 0 28.074406-12.555967 28.074406-28.074405-0.001023-15.514345-12.561084-28.074406-28.075429-28.074406z m0 0" p-id="55253" fill="#dfb330"></path></svg>