<?xml version="1.0" standalone="no"?><!DOCTYPE svg PUBLIC "-//W3C//DTD SVG 1.1//EN" "http://www.w3.org/Graphics/SVG/1.1/DTD/svg11.dtd"><svg t="1537941776489" class="icon" style="" viewBox="0 0 1024 1024" version="1.1" xmlns="http://www.w3.org/2000/svg" p-id="54384" xmlns:xlink="http://www.w3.org/1999/xlink" width="28" height="28"><defs><style type="text/css"></style></defs><path d="M835.69 847.895 188.31 847.895c-38.276 0-69.416-31.14-69.416-69.415l0-532.96c0-38.274 31.14-69.413 69.416-69.413L835.69 176.107c38.275 0 69.415 31.139 69.415 69.413l-0.001 74.818c0 9.595-5.492 18.343-14.133 22.514-42.764 20.641-165.546 89.108-375.361 209.315-8.059 4.616-18.014 4.387-25.849-0.601L256.798 403.322c-11.649-7.413-15.083-22.865-7.67-34.513 7.413-11.648 22.865-15.082 34.513-7.67l220.222 140.136c183.831-105.247 299.251-169.787 351.242-196.395l0.001-59.36c0-10.704-8.71-19.413-19.415-19.413L188.31 226.107c-10.706 0-19.416 8.708-19.416 19.413l0 532.96c0 10.705 8.71 19.415 19.416 19.415L835.69 797.895c10.705 0 19.415-8.709 19.415-19.413L855.105 511.999c0-13.807 11.192-25 25-25s25 11.193 25 25l0 266.482C905.105 816.756 873.966 847.895 835.69 847.895z" p-id="54385" fill="#dfb330"></path></svg>