<?xml version="1.0" standalone="no"?><!DOCTYPE svg PUBLIC "-//W3C//DTD SVG 1.1//EN" "http://www.w3.org/Graphics/SVG/1.1/DTD/svg11.dtd"><svg t="1537941843480" class="icon" style="" viewBox="0 0 1024 1024" version="1.1" xmlns="http://www.w3.org/2000/svg" p-id="56621" xmlns:xlink="http://www.w3.org/1999/xlink" width="28" height="28"><defs><style type="text/css"></style></defs><path d="M511.996736 217.504455a162.251421 162.251421 0 0 0-163.224213 160.766634 157.69466 157.69466 0 0 0 28.364559 90.52083 164.7602 164.7602 0 0 0 269.668108 0 158.053057 158.053057 0 0 0 28.415759-90.52083A162.149022 162.149022 0 0 0 511.996736 217.504455z m81.100111 215.038172a98.917559 98.917559 0 0 1-162.200222 0 95.435989 95.435989 0 0 1-16.998255-54.476337 98.251965 98.251965 0 0 1 196.50393 0 95.743186 95.743186 0 0 1-17.203054 54.578737zM511.996736 0.008704A381.641556 381.641556 0 0 0 128 378.271089a371.964838 371.964838 0 0 0 66.866632 213.246187l290.403931 418.556442a32.767721 32.767721 0 0 0 53.605945 0l290.55753-418.556442A372.528034 372.528034 0 0 0 895.993472 378.271089 381.436758 381.436758 0 0 0 511.996736 0.008704z m263.626559 555.361679L511.996736 935.168755l-263.57536-379.798372a308.886974 308.886974 0 0 1-55.449128-177.099294A317.130104 317.130104 0 0 1 511.996736 64.00816a317.130104 317.130104 0 0 1 319.075688 314.262929 309.194172 309.194172 0 0 1-55.449129 177.099294z m0 0" fill="#dfb330" p-id="56622"></path></svg>