<?xml version="1.0" standalone="no"?><!DOCTYPE svg PUBLIC "-//W3C//DTD SVG 1.1//EN" "http://www.w3.org/Graphics/SVG/1.1/DTD/svg11.dtd"><svg t="1537928655276" class="icon" style="" viewBox="0 0 1024 1024" version="1.1" xmlns="http://www.w3.org/2000/svg" p-id="35984" xmlns:xlink="http://www.w3.org/1999/xlink" width="60" height="60"><defs><style type="text/css"></style></defs><path d="M267.539 6C146.585 6 48.178 120.672 48.178 261.614c0 112.564 64.509 212.33 155.644 244.63-7.363 75.403-35.511 366.285-35.511 408.069 0 58.146 43.59 103.687 99.229 103.687 60.277 0 99.214-40.717 99.214-103.687 0-50.779-28.1-333.769-35.585-408.086 91.176-32.283 155.701-132.016 155.701-244.628C486.869 120.672 388.479 6 267.539 6z m37.415 464.419c-0.905 0.247-1.598 0.873-2.471 1.204-1.253 0.509-2.479 1.003-3.608 1.761-1.062 0.741-1.942 1.631-2.848 2.569-0.939 0.923-1.812 1.83-2.571 2.95-0.741 1.121-1.243 2.289-1.777 3.541-0.511 1.235-1.021 2.389-1.317 3.706-0.289 1.384-0.313 2.766-0.347 4.217-0.018 0.955-0.346 1.845-0.247 2.833 0.362 3.639 37.11 366.052 37.11 421.132 0 53.53-37.176 61.521-59.339 61.521-33.279 0-59.337-26.998-59.337-61.521 0-35.905 24.213-291.192 37.011-421.199 0.1-0.971-0.23-1.844-0.279-2.783-0.041-1.434-0.05-2.816-0.379-4.2-0.313-1.317-0.808-2.504-1.334-3.723-0.527-1.252-1.029-2.438-1.779-3.524-0.741-1.088-1.622-2.01-2.537-2.95-0.922-0.938-1.786-1.811-2.882-2.552-1.128-0.758-2.339-1.252-3.591-1.778-0.84-0.331-1.532-0.94-2.429-1.17-82.267-20.837-141.957-108.677-141.957-208.806 0.017-117.719 80.512-213.482 179.493-213.482 98.96 0 179.462 95.747 179.462 213.434 0 100.209-59.758 188.017-142.047 208.82zM955.875 6c-11.001 0-19.929 9.454-19.929 21.083v265.482c0 84.479-54.256 159.077-129.051 177.393-0.972 0.247-1.663 0.873-2.555 1.235-1.267 0.494-2.519 0.955-3.64 1.746-1.086 0.741-1.942 1.648-2.864 2.569-0.923 0.938-1.847 1.845-2.571 2.948-0.758 1.104-1.252 2.307-1.763 3.525-0.527 1.25-1.069 2.404-1.349 3.721-0.313 1.352-0.313 2.751-0.348 4.185-0.033 1.003-0.361 1.927-0.264 2.965 0.396 3.673 38.658 366.48 38.658 421.478 0 53.53-37.209 61.521-59.345 61.521-33.271 0-59.346-26.998-59.346-61.521 0-35.809 26.535-291.043 40.585-420.983 0.115-1.071-0.214-2.06-0.247-3.097-0.033-1.434-0.033-2.833-0.331-4.184-0.312-1.318-0.871-2.504-1.415-3.739-0.494-1.235-0.988-2.438-1.729-3.526-0.741-1.103-1.663-1.959-2.586-2.915-0.972-0.938-1.812-1.861-2.9-2.586-1.151-0.758-2.403-1.202-3.672-1.713-0.922-0.379-1.663-1.021-2.685-1.252-75.751-17.559-130.747-92.321-130.797-177.772V27.083C605.731 15.454 596.82 6 585.801 6c-11.036 0-19.947 9.454-19.947 21.083v265.482c0.05 98.447 59.923 185.481 144.682 213.976-8.169 76.274-38.938 365.988-38.938 407.756 0 58.146 43.583 103.687 99.256 103.687 60.285 0 99.238-40.717 99.238-103.687 0-50.763-29.237-333.654-37.044-408.382 83.69-29.188 142.771-115.989 142.771-213.35V27.083C975.822 15.454 966.911 6 955.875 6zM704.807 318.968c11.003 0 19.931-9.455 19.931-21.083V27.083C724.737 15.454 715.81 6 704.807 6c-11.036 0-19.931 9.454-19.931 21.083v270.802c-0.032 11.628 8.895 21.083 19.931 21.083z m132.131 0c11.02 0 19.931-9.455 19.931-21.083V27.083C856.868 15.454 847.957 6 836.938 6c-11.035 0-19.946 9.454-19.946 21.083v270.802c-0.001 11.628 8.91 21.083 19.946 21.083z" fill="#dfb330" p-id="35985"></path></svg>