<?xml version="1.0" standalone="no"?><!DOCTYPE svg PUBLIC "-//W3C//DTD SVG 1.1//EN" "http://www.w3.org/Graphics/SVG/1.1/DTD/svg11.dtd"><svg t="1537926678236" class="icon" style="" viewBox="0 0 1024 1024" version="1.1" xmlns="http://www.w3.org/2000/svg" p-id="28397" xmlns:xlink="http://www.w3.org/1999/xlink" width="60" height="60"><defs><style type="text/css"></style></defs><path d="M511.997 65C337.734 65 196.47 212.416 196.47 394.27c0 74.18 23.514 142.624 63.171 197.671L511.997 959l252.375-367.081c39.653-55.044 63.158-123.488 63.158-197.649C827.529 212.416 686.259 65 511.997 65z m209.04 497.126l-209.04 304.051-209.686-304.975c-34.838-48.358-53.253-106.082-53.253-166.932 0-152.562 117.954-276.682 262.938-276.682 144.987 0 262.944 124.12 262.944 276.682 0.001 60.847-18.41 118.564-53.903 167.856z" p-id="28398" fill="#ffffff"></path><path d="M512.003 249.065c-72.611 0-131.471 58.86-131.471 131.471 0 72.607 58.86 131.471 131.471 131.471s131.471-58.863 131.471-131.471c0-72.611-58.86-131.471-131.471-131.471z m0 210.353c-43.495 0-78.882-35.387-78.882-78.882s35.387-78.882 78.882-78.882 78.882 35.387 78.882 78.882-35.387 78.882-78.882 78.882z" p-id="28399" fill="#ffffff"></path></svg>