<?xml version="1.0" standalone="no"?><!DOCTYPE svg PUBLIC "-//W3C//DTD SVG 1.1//EN" "http://www.w3.org/Graphics/SVG/1.1/DTD/svg11.dtd"><svg t="1537925844316" class="icon" style="" viewBox="0 0 1024 1024" version="1.1" xmlns="http://www.w3.org/2000/svg" p-id="10052" xmlns:xlink="http://www.w3.org/1999/xlink" width="60" height="60"><defs><style type="text/css"></style></defs><path d="M996.868 318.971L799.745 100.325H223.258S27.802 314.001 27.802 315.646c-57.978 71.238 0 109.331 0 109.331S461.81 898.756 461.81 897.722c53.01 55.27 106.018 0 106.018 0s437.315-472.744 437.315-474.391c44.73-66.27-8.275-104.36-8.275-104.36z m-24.835 74.532c0-1.648-443.957 482.085-443.957 482.085s-13.257 26.515-38.102-9.938C491.62 867.312 50.96 395.163 50.96 395.163s-19.876-26.506 0-44.72l198.803-208.758h526.781l195.487 210.407c0.002 0.001 24.865 16.567 0.002 41.411z" p-id="10053" fill="#ffffff"></path><path d="M256.333 343.814L512.636 600.65l260.669-256.836 39.514 25.155-307.939 301.74L212.144 369.18l44.189-25.366z" p-id="10054" fill="#ffffff"></path></svg>