<?xml version="1.0" standalone="no"?><!DOCTYPE svg PUBLIC "-//W3C//DTD SVG 1.1//EN" "http://www.w3.org/Graphics/SVG/1.1/DTD/svg11.dtd"><svg t="1537926460985" class="icon" style="" viewBox="0 0 1025 1024" version="1.1" xmlns="http://www.w3.org/2000/svg" p-id="13322" xmlns:xlink="http://www.w3.org/1999/xlink" width="60.05859375" height="60"><defs><style type="text/css"></style></defs><path d="M821.27 93.11H202.73C108.59 93.11 32 169.76 32 263.96v230.25c0 11.97 9.69 21.69 21.69 21.69 11.97 0 21.69-9.72 21.69-21.69v-230.25c0-70.29 57.12-127.47 127.35-127.47H821.3c70.23 0 127.35 57.18 127.35 127.47v230.25c0 11.97 9.72 21.69 21.69 21.69S992 506.18 992 494.21v-230.25c0-94.2-76.56-170.85-170.73-170.85z m-9.09 603.6c-8.1 8.82-7.5 22.56 1.32 30.66 33.66 30.93 52.98 74.85 52.98 120.57 0 12 9.72 21.69 21.69 21.69 11.97 0 21.69-9.72 21.69-21.69 0-57.81-24.45-113.43-67.05-152.55-8.79-8.07-22.53-7.5-30.63 1.32z m-485.79-16.08c5.94-3.63 10.26-9.75 10.62-17.22 0.57-12-8.67-22.14-20.64-22.71-50.82-2.4-90.63-44.13-90.63-95.01 0-42.12 28.23-79.71 68.67-91.47 11.49-3.33 18.12-15.39 14.76-26.88-3.33-11.49-15.39-18.15-26.85-14.79-58.83 17.1-99.96 71.82-99.96 133.11 0 46.05 22.41 86.94 57.12 112.14-74.07 31.5-125.37 104.52-125.37 190.08 0 12 9.72 21.69 21.69 21.69 11.97 0 21.69-9.72 21.69-21.69 0-88.47 69.27-160.17 157.68-163.26 4.29-0.09 7.95-1.74 11.22-3.99z m415.26-268.05c-11.46-3.39-23.55 3.27-26.88 14.79-3.33 11.52 3.27 23.55 14.76 26.88 40.44 11.76 68.67 49.35 68.67 91.47 0 50.88-39.81 92.61-90.63 95.01-11.97 0.57-21.21 10.74-20.64 22.71 0.57 11.64 10.14 20.67 21.66 20.67h1.02c74.01-3.51 131.97-64.29 131.97-138.39 0.03-61.32-41.07-116.07-99.93-133.14zM512 345.77c-95.25 0-172.71 77.55-172.71 172.86 0 61.68 32.55 115.77 81.24 146.37-98.79 37.2-169.41 132.48-169.41 244.2 0 12 9.69 21.69 21.69 21.69 11.97 0 21.69-9.72 21.69-21.69 0-120.03 97.59-217.71 217.53-217.71 95.25 0 172.74-77.55 172.74-172.89-0.03-95.31-77.55-172.83-172.77-172.83z m0 302.34c-71.34 0-129.36-58.08-129.36-129.48S440.66 389.18 512 389.18s129.36 58.08 129.36 129.45c0 71.4-58.02 129.48-129.36 129.48z m145.68 69.96c-8.1 8.82-7.5 22.56 1.32 30.66C703.82 789.89 729.5 848.36 729.5 909.2c0 12 9.69 21.69 21.69 21.69 11.97 0 21.69-9.72 21.69-21.69 0-72.96-30.84-143.1-84.57-192.45-8.76-8.07-22.5-7.5-30.63 1.32z" fill="#dfb330" p-id="13323"></path></svg>