<?xml version="1.0" standalone="no"?><!DOCTYPE svg PUBLIC "-//W3C//DTD SVG 1.1//EN" "http://www.w3.org/Graphics/SVG/1.1/DTD/svg11.dtd"><svg t="1537925650386" class="icon" style="" viewBox="0 0 1024 1024" version="1.1" xmlns="http://www.w3.org/2000/svg" p-id="6133" xmlns:xlink="http://www.w3.org/1999/xlink" width="60" height="60"><defs><style type="text/css"></style></defs><path d="M508.788364 487.284364h-225.419637c-12.869818 0-25.693091 11.822545-25.693091 23.645091 0 11.799273 12.846545 23.528727 25.693091 23.528727h225.419637c12.869818 0 25.809455-11.729455 25.809454-23.528727 0.023273-11.845818-12.939636-23.645091-25.809454-23.645091z m0 173.079272h-225.419637c-12.869818 0-25.693091 10.635636-25.693091 21.154909 0 10.589091 0.488727 26.112 25.693091 26.507637h225.419637c17.757091 1.070545 25.809455-10.565818 25.809454-21.154909s-8.052364-27.066182-25.809454-26.507637zM1004.753455 939.52h-45.102546V437.969455c0-44.962909-38.632727-83.525818-83.688727-83.525819H772.887273c-12.962909 0-25.786182 12.776727-25.786182 25.693091 0 12.8 12.939636 25.716364 25.786182 25.716364h103.074909c12.869818 0 30.696727 12.706909 30.696727 25.646545l1.954909 511.045819-199.773091 0.954181-0.325818-826.996363c0-44.869818-38.656-83.432727-83.688727-83.432728H160.977455c-45.032727 0-83.688727 38.469818-83.688728 83.432728v823.086545H25.716364c-12.846545 0-25.716364 12.869818-25.716364 25.646546 0 12.939636 12.869818 25.693091 25.716364 25.693091h972.590545c12.939636 0 25.693091-12.776727 25.693091-25.693091 0-12.776727-6.376727-25.716364-19.246545-25.716364z m-345.134546 4.375273H125.090909V112.407273c0-12.893091 13.242182-25.902545 26.344727-25.902546h481.745455c13.242182 0 26.437818 13.009455 26.437818 25.902546v831.488z m-150.830545-656.616728h-225.419637c-12.869818 0-25.693091 12.032-25.693091 24.017455 0 11.892364 12.846545 23.924364 25.693091 23.924364h225.419637c12.869818 0 25.809455-12.032 25.809454-23.924364 0.023273-11.985455-12.939636-24.017455-25.809454-24.017455z" fill="#ffffff" p-id="6134"></path></svg>