<?xml version="1.0" standalone="no"?><!DOCTYPE svg PUBLIC "-//W3C//DTD SVG 1.1//EN" "http://www.w3.org/Graphics/SVG/1.1/DTD/svg11.dtd"><svg t="1537929128485" class="icon" style="" viewBox="0 0 1024 1024" version="1.1" xmlns="http://www.w3.org/2000/svg" p-id="43549" xmlns:xlink="http://www.w3.org/1999/xlink" width="60" height="60"><defs><style type="text/css"></style></defs><path d="M510.976 517.12c0.512-2.56 1.024-5.12 2.048-7.168-0.512-1.024-1.024-1.536-2.048-2.56v9.728z" p-id="43550" fill="#dfb330"></path><path d="M871.936 772.608c-1.536-3.072-1.024-5.12 1.536-7.68l4.608-4.608c21.504-22.016 24.064-51.712 5.12-76.288-26.112-33.792-52.224-67.584-77.824-101.376-44.544-57.856-95.232-117.76-139.776-175.616-0.512 2.56-1.024 5.12-2.048 7.168V404.48c0.512 1.024 1.024 1.536 2.048 2.56 14.848-62.464 6.656-127.488-24.064-184.832-33.28-61.952-88.064-107.008-155.648-127.488-67.072-20.48-138.24-13.312-199.68 19.968C224.256 147.968 179.2 203.264 158.72 270.336c-7.68 24.576-11.264 50.688-11.264 76.288 0 12.8 1.024 25.6 3.072 38.4 3.072 22.016 2.56 48.64 30.72 45.056 19.968-2.048 23.552-9.728 22.016-24.576-1.024-9.216-2.048-10.24-3.072-19.456-1.536-9.728-2.56-20.48-2.56-30.72 0-19.456 0.512-50.176 6.144-69.12 15.36-50.688 54.272-103.936 100.864-129.024 29.184-15.872 69.12-27.136 101.376-29.184 45.568-2.56 58.368 4.608 84.48 12.8 50.688 18.944 86.528 53.76 111.616 100.864 38.912 65.024 30.72 122.368 14.848 166.912-21.504 50.688-65.536 96.768-112.64 121.856-47.104 25.088-93.184 35.84-151.552 17.408-14.336-4.608-32.768-11.776-46.08-19.456-11.776-6.656-24.576-20.992-38.912-20.992-17.92 0-28.16 7.68-25.6 25.088 2.56 15.872 16.384 22.528 30.72 31.232 18.944 11.776 39.936 21.504 61.44 28.16 25.088 7.68 50.688 9.216 76.288 9.216 22.016 0 38.4-1.024 59.392-6.656l5.632 5.632c43.008 33.28 81.408 70.656 124.416 103.936 49.664 38.4 99.328 76.8 148.992 114.688 23.552 17.92 52.736 16.384 74.24-3.584 1.024-1.024 4.608-4.608 7.68-7.168 10.752 16.896 11.264 28.16 13.824 42.496 2.048 8.192-4.608 19.456-5.632 20.48-18.944 17.92-48.128 25.088-75.264 17.92-22.528-6.144-41.984-10.752-64-18.944-100.864-35.84-204.288-54.272-311.296-56.832-57.856-1.024-111.616 4.096-166.4 22.528-27.136 8.704-52.224 18.944-77.312 32.256-16.384 8.704-20.992 17.92-12.8 34.816 8.704 10.752 23.04 13.312 36.352 6.144 52.224-26.624 107.52-44.032 165.888-49.152 40.96-3.584 82.432-1.024 123.392 2.56 61.952 5.632 122.88 18.944 181.76 37.888 33.28 10.752 66.048 22.016 99.84 31.744 25.088 7.168 50.688 10.24 76.288 2.56 25.088-7.168 44.544-22.016 63.488-38.912 7.168-6.656 11.776-14.336 12.8-23.552 1.024-7.68 1.536-15.36 1.024-23.04-2.048-25.6-10.752-51.2-20.992-76.288z m-70.656 28.16c-95.232-73.216-190.976-146.944-286.72-220.672 1.536-1.024 3.072-1.536 4.608-2.56 54.784-29.184 97.792-73.728 124.928-128 73.728 96.256 147.456 191.488 220.672 287.232-20.992 21.504-41.984 42.496-63.488 64z" p-id="43551" fill="#dfb330"></path><path d="M474.112 504.832c14.848 14.848 29.696 30.208 45.056 45.056 8.192 8.192 21.504 7.168 29.696-1.024 8.192-8.192 8.704-20.992 0.512-29.696-14.848-15.36-29.696-30.208-45.056-45.056-6.656-6.144-14.848-7.168-23.552-3.584-8.192 3.584-12.288 10.752-12.288 19.456 0 6.144 2.048 11.264 5.632 14.848z" p-id="43552" fill="#dfb330"></path></svg>